<svg class="ico_bi" xmlns="http://www.w3.org/2000/svg" viewBox="0 0 30.01 29.99">
    <style>
        .ico_bi {fill:#fff}
    </style>
    <path d="M29.48.35c-1.39-1.4-3.69,1.72-5,3.79C23.21,2.07,20.91-1,19.52.35,18,1.94,19.86,4.1,22.36,5.14a1.11,1.11,0,0,1,.7,1V8.77a1.06,1.06,0,0,1-1,1.08H3.73A3.76,3.76,0,0,0,.78,11,3.07,3.07,0,0,0,0,13.09v12.1c0,1.56,1.18,2.36,2.94,2.36H4.83a19.24,19.24,0,0,0,5.25-.86A.69.69,0,0,1,11,27a5.63,5.63,0,0,0,5.27,3L14.9,27.55h4.88a5.16,5.16,0,0,0,3.14-1.5c1.82-1.72,2.74-4.63,2.74-8.64V6.16a1.11,1.11,0,0,1,.7-1C28.91,4.09,31.05,1.94,29.48.35ZM4.83,23a1.69,1.69,0,0,1,0-3.37,1.69,1.69,0,0,1,0,3.37Z"/>
</svg>