<svg version="1.1" xmlns="http://www.w3.org/2000/svg" xmlns:xlink="http://www.w3.org/1999/xlink" x="0px" y="0px" viewBox="0 0 432.4 657" style="enable-background:new 0 0 432.4 657;" xml:space="preserve">
	<defs>
		<mask id="theMask" maskUnits="userSpaceOnUse">
			<path class="line1" fill="none" stroke="#fff" stroke-linecap="round" stroke-miterlimit="10" stroke-width="5" d="M177.6,4c0,0-326.9,55.8-86.3,653"/>
			<path class="line2" fill="none" stroke="#fff" stroke-linecap="round" stroke-miterlimit="10" stroke-width="5" d="M177.6,0c0,0-196.3,229.8-27,450"/>
			<path class="line3" fill="none" stroke="#fff" stroke-linecap="round" stroke-miterlimit="10" stroke-width="5" d="M177.6,8c0,0-140.3,164.8,4,311"/>
			<path class="line4" fill="none" stroke="#fff" stroke-linecap="round" stroke-miterlimit="10" stroke-width="5" d="M182.6,10c0,0,28.8,70.8-25,175"/>
			<path class="line5" fill="none" stroke="#fff" stroke-linecap="round" stroke-miterlimit="10" stroke-width="5" d="M177.6,3c0,0,277.8,62.8,168,368"/>
			<path class="line6" fill="none" stroke="#fff" stroke-linecap="round" stroke-miterlimit="10" stroke-width="5" d="M179.6,5c0,0,247.8,17.8,216,289"/>
			<path class="line7" fill="none" stroke="#fff" stroke-linecap="round" stroke-miterlimit="10" stroke-width="5" d="M182.6,5c0,0,261.8-18.2,245,204"/>
		</mask>
	</defs>
	<g id="maskReveal" mask="url(#theMask)">
		<path class="line1" fill="none" stroke="#fff336" stroke-linecap="round" stroke-miterlimit="10" stroke-width="3" stroke-dasharray="10 10" d="M177.6,4c0,0-326.9,55.8-86.3,653"/>
		<path class="line2" fill="none" stroke="#fff336" stroke-linecap="round" stroke-miterlimit="10" stroke-width="3" stroke-dasharray="10 10" d="M177.6,0c0,0-196.3,229.8-27,450"/>
		<path class="line3" fill="none" stroke="#fff336" stroke-linecap="round" stroke-miterlimit="10" stroke-width="3" stroke-dasharray="10 10" d="M177.6,8c0,0-140.3,164.8,4,311"/>
		<path class="line4" fill="none" stroke="#fff336" stroke-linecap="round" stroke-miterlimit="10" stroke-width="3" stroke-dasharray="10 10" d="M182.6,10c0,0,28.8,70.8-25,175"/>
		<path class="line5" fill="none" stroke="#fff336" stroke-linecap="round" stroke-miterlimit="10" stroke-width="3" stroke-dasharray="10 10" d="M177.6,3c0,0,277.8,62.8,168,368"/>
		<path class="line6" fill="none" stroke="#fff336" stroke-linecap="round" stroke-miterlimit="10" stroke-width="3" stroke-dasharray="10 10" d="M179.6,5c0,0,247.8,17.8,216,289"/>
		<path class="line7" fill="none" stroke="#fff336" stroke-linecap="round" stroke-miterlimit="10" stroke-width="3" stroke-dasharray="10 10" d="M182.6,5c0,0,261.8-18.2,245,204"/>
	</g>


</svg>
