<svg version="1.1" xmlns="http://www.w3.org/2000/svg" xmlns:xlink="http://www.w3.org/1999/xlink" x="0px" y="0px" viewBox="0 0 71.8 62.5" style="enable-background:new 0 0 71.8 62.5;" xml:space="preserve">
	<rect style="fill:none" width="71.8" height="6.4"/>
	<rect x="4.4" y="6.4" style="fill:none" width="62.9" height="42.1"/>
	<line style="fill:none" x1="35.9" y1="48.5" x2="35.9" y2="58.7"/>
	<g id="color">
		<circle style="fill:none" cx="35.9" cy="58.7" r="3.1"/>
		<path style="fill:none" d="M22.7,14.4c-2.9,0-5.6,1.1-7.7,3.2l7.6,7.6H11.9c0,6,4.8,10.8,10.8,10.8c6,0,10.8-4.8,10.8-10.8 S28.6,14.4,22.7,14.4C22.7,14.4,22.7,14.4,22.7,14.4z"/>
	</g>
	<path style="fill:none" d="M15,17.6c-2,2-3.2,4.8-3.1,7.6h10.8L15,17.6z"/>
	<line style="fill:none" x1="39" y1="18.7" x2="49" y2="18.7"/>
	<line style="fill:none" x1="39" y1="23.9" x2="60.3" y2="23.9"/>
	<line style="fill:none" x1="39" y1="29.4" x2="60.3" y2="29.4"/>
	<line style="fill:none" x1="39" y1="34.8" x2="60.3" y2="34.8"/>
</svg>
