<?xml version="1.0" encoding="utf-8"?>
<!-- Generator: Adobe Illustrator 24.3.0, SVG Export Plug-In . SVG Version: 6.00 Build 0)  -->
<svg version="1.1" id="레이어_1" xmlns="http://www.w3.org/2000/svg" xmlns:xlink="http://www.w3.org/1999/xlink" x="0px"
	 y="0px" viewBox="0 0 73 57.2" style="enable-background:new 0 0 73 57.2;" xml:space="preserve">
<style type="text/css">
	.st0{fill:none;}
</style>
<line class="st0" x1="60.3" y1="31.8" x2="60.3" y2="19.4"/>
<polyline class="st0" points="40.4,0 12.9,0 12.9,57.2 60.3,57.2 60.3,44.3 "/>
<polygon class="st0" points="44.8,15.5 60.3,15.5 44.8,0 "/>
<path class="st0" d="M73,19.5l-5-2.6l-1.4,2.7l5,2.6L73,19.5z"/>
<path class="st0" d="M56.9,46.9l1.6,0.8l13.1-25.5l-5-2.6L53.4,45.2l1.4,0.7"/>
<g id="color">
	<polygon class="st0" points="51.9,54.3 51.5,48.3 56.7,45 57.1,51.1 	"/>
	<line class="st0" x1="19.3" y1="12.6" x2="33.5" y2="12.6"/>
	<line class="st0" x1="19.3" y1="22.4" x2="51.5" y2="22.4"/>
	<line class="st0" x1="19.3" y1="32.1" x2="51.5" y2="32.1"/>
	<line class="st0" x1="19.3" y1="41.9" x2="51.5" y2="41.9"/>
</g>
</svg>
