<svg xmlns="http://www.w3.org/2000/svg" viewBox="0 0 340.16 170.08">
    <defs>
        <style>
            .cls-1{fill:#85c440;}
            .cls-2{fill:#77787b;}
            .cls-3{fill:#008ed3;}
            .cls-4{fill:none;}
        </style>
    </defs>
    <path class="cls-1" d="M234.8,60.11h-7.65v-12a9.78,9.78,0,0,1,2.57-6.76c2.21-2.38,5.49-3.58,9.75-3.58H299V45.4H239.47c-4.91,0-4.67,4.15-4.67,4.15Z"/>
    <path class="cls-1" d="M324.47,7.38c-4.58-4.48-12.18,5.51-16.44,12.1-4.25-6.59-11.86-16.58-16.44-12.1-5.65,5.54,3.3,13.24,12.64,16.12V61.88c0,23.28-11.08,24.56-11.94,24.62H277v7.66h15.46a16.74,16.74,0,0,0,10.37-4.65c6-5.51,9.07-14.81,9.07-27.63V23.49C321.2,20.59,330.11,12.91,324.47,7.38Z"/><path class="cls-2" d="M246.38,80.14a3.28,3.28,0,1,1-3.28-3.29A3.28,3.28,0,0,1,246.38,80.14Z"/><path class="cls-3" d="M27.93,75.71H50.07V67.19h7.54V92.83a35.74,35.74,0,0,1-14.74,3.63v10.18h22v6.08H13.93v-6.08H35.07V96.53H29.26c-5.75,0-8.86-1.78-8.86-7.4V67.19h7.53Zm3.38,14.74h8.32a28.46,28.46,0,0,0,10.44-1.92V81.86H27.93v5.62C27.93,89.32,28.4,90.45,31.31,90.45Z"/><path class="cls-3" d="M84.58,71H99.05V76.9h-5A13.51,13.51,0,0,1,96,81.13h9.85V65h7.53V93.29a10.12,10.12,0,0,1-3.7,7.87c2.58.33,2.38,1.77,2.38,5.41v15.27c-.07,1.52-1.13,2.11-2.85,2.11H82.66c-4.9,0-7.34-1.26-7.34-6.28V101.09h27.89c2-1.72,2.64-4.89,2.64-7.94V87.28h-10c-1.45,5.48-6.54,9.52-13.81,9.52C73.14,96.8,67.72,91,67.72,84A12.18,12.18,0,0,1,70,76.9H65V71H77.5V65h7.08Zm-2.52,6.27a6.78,6.78,0,1,0,0,13.55,6.78,6.78,0,1,0,0-13.55Zm23.26,40.7V107.16H82.86v8.4c0,1.72.46,2.37,2.51,2.37Z"/><path class="cls-3" d="M171.11,92.69H120.23V86.81h34.9l.79-5.15H126.71V75.85h29.74c.06-1.26.13-2.31.13-3.24,0-1.32-.34-1.65-1.52-1.65H126.71V65H158.1c3.7,0,5.61,1.12,5.68,5.15a89.29,89.29,0,0,1-1.72,16.65h9.05Zm-39.05,31c-3.44,0-5.42-1.19-5.42-4.75V108H157.5v-4.23H126.64V98H160.8c3.38,0,3.18,1.89,3.18,4.69v8.92c-.13,1.26-.53,2-2.12,2H134.31v4.36h22.2a35.86,35.86,0,0,0,8.85-.86l1.39,5.28a32.6,32.6,0,0,1-10.63,1.39Z"/><path class="cls-3" d="M186.2,105.92c-5.82,0-9.72-2.59-9.72-7.54v-15H196v-10H176.48V67.26h27V83.35c0,5.78-4.09,5.84-7.54,5.84H184v8.66c0,1.39.4,2,2.18,2h6.21c4.76,0,15.13-1.2,21.34-5V65h7.6v54h-7.6V101.29c-5.87,3-15.13,4.63-21.34,4.63Z"/><polygon class="cls-3" points="230.77 102.53 230.77 109.63 264.42 109.63 264.42 120.68 272.02 120.68 272.02 102.53 230.77 102.53"/><path class="cls-3" d="M234.8,65V86.24c0,1.38.29,2,2.07,2h6.21c4.76,0,15.13-1.19,21.34-5V65H272V94.29h-7.6V89.67c-5.88,3-15.13,4.62-21.34,4.62h-6.21c-5.82,0-9.72-2.57-9.72-7.53V65Z"/><path class="cls-2" d="M174.89,144.09l-.07,10.83c1.42-.07,2.72-.14,3.84-.24v2.09c-2.62.28-7.92.45-10.67.48h-3.52v-2.12h2.68l-.11-11h-2.57V142h14.19v2.08Zm-2.42,0h-3l.07,11c.85,0,1.85-.08,2.85-.1Zm7.69,19V140.74h2.6v22.33Z"/><path class="cls-2" d="M185.85,152.48v-2h21.41v2Zm15.47-9.24,0,3.29h3.07v2H188.88v-2h3l-.07-3.29h-2.72v-2H204v2Zm-11.74,15H200.7V156.6H189.58v-2h13.89v5.5h-11.1v1.72h11.1v2H189.58Zm9.36-15h-4.69l.07,3.29h4.57Z"/><path class="cls-2" d="M226.92,144.69v-3.93h-2.57v14.32c-3,.35-7.63.47-9.44.47l-2.38,0v-4.9h7.14v-8.77h-9.78v2.15h7.16v4.59h-7.19v9h4c2,0,7.56-.19,10.52-.53v5.9h2.57V146.81h3.42v-2.12Z"/><path class="cls-2" d="M238.06,142c3.65,0,6.12,3,6.12,7.07s-2.57,7.12-6.12,7.09-6.15-2.92-6.15-7.09S234.56,142,238.06,142Zm0,2.28c-2,0-3.55,2.07-3.53,4.79,0,3,1.53,4.8,3.53,4.8s3.49-2,3.52-4.8S240.06,144.24,238.06,144.24Zm9.54,18.83V140.74h2.6v22.33Z"/><path class="cls-2" d="M253.15,160.57V158.4h21.11v2.17ZM268.42,144l-.08,7.39h2.87v2.08H256.3v-2.08h2.84l-.06-7.39H256.3v-2.07h14.91V144ZM266,144h-4.57l0,7.39H266Z"/><path class="cls-1" d="M141.55,140.65a2.85,2.85,0,1,0-2.82,3.28A3.08,3.08,0,0,0,141.55,140.65Z"/><path class="cls-3" d="M155.22,140.77a2.85,2.85,0,1,0-2.82,3.28A3.07,3.07,0,0,0,155.22,140.77Z"/><path class="cls-3" d="M147.89,150.52a1.76,1.76,0,0,0-2.35-1c-.41.12-.53-.08-.57-.26v-1.4h0V146a1,1,0,0,0-.94-1.08h-11a1,1,0,0,0-.94,1.08v1.84c0,.28.13.91.48,1.11a7.6,7.6,0,0,0,.93.64h0a2.62,2.62,0,0,1,.58.4,2.56,2.56,0,0,1,.62,3.16,1.62,1.62,0,0,1-2,.52v0c-.48-.25-.61.1-.64.38v3.1a1,1,0,0,0,.94,1.09h3.7c.43,0,1.05.14,1,.54,0,0,.1.21-.55.71a1.57,1.57,0,0,0-.24,1.84,2,2,0,0,0,.3.44,2.36,2.36,0,0,0,1.36.71,4.08,4.08,0,0,0,1.12.09c1.55-.09,2.76-1,2.71-2.06h0a.57.57,0,0,0,0-.13,1.35,1.35,0,0,0-.26-.73,2.37,2.37,0,0,0-.5-.5l-.21-.14h0s-.45-.28-.28-.58c0,0,.08-.15.55-.19H144a1,1,0,0,0,.94-1.09v-1.3h0v-2.09a.38.38,0,0,1,.47-.36h.1a2,2,0,0,0,1.1-.16A2.29,2.29,0,0,0,147.89,150.52Z"/><path class="cls-4" d="M145.86,148.13v-.19A.36.36,0,0,0,145.86,148.13Z"/><path class="cls-1" d="M157.77,144.9h-11a1,1,0,0,0-.93,1.08v2h0v.19c0,.19.17.46.71.52h0a2.32,2.32,0,0,1,2,1.57,3.1,3.1,0,0,1-1.71,3.7,2.51,2.51,0,0,1-.46.16h0a.7.7,0,0,0-.57.71v2.34a1,1,0,0,0,.93,1.09h11a1,1,0,0,0,.94-1.09V146A1,1,0,0,0,157.77,144.9Z"/>
</svg>